<svg xmlns="http://www.w3.org/2000/svg" width="512" height="512" viewBox="0 0 512 512"><g style="fill:#1a5fb4;fill-opacity:1;stroke-width:1.0002;stroke-dasharray:none"><path fill="#a5a5a5" d="M2176.024 43.969H137.833c-76.124 0-108.44 54.26-72.182 121.194l961.582 1775.087c36.984 68.273 129.911 123.619 207.558 123.619h2064.774c76.124 0 108.44-54.26 72.182-121.194l-948.92-1751.712c-43.977-81.182-154.475-146.994-246.805-146.994" style="fill:#1a5fb4;fill-opacity:1;stroke-width:9.25002;stroke-dasharray:none" transform="matrix(.10821 0 0 -.10821 69.827 370.045)"/></g><g style="fill:#3584e4"><path fill="#a5a5a5" d="M2176.024 43.969H137.833c-76.124 0-108.44 54.26-72.182 121.194l961.582 1775.087c36.984 68.273 129.911 123.619 207.558 123.619h2064.774c76.124 0 108.44-54.26 72.182-121.194l-948.92-1751.712c-43.977-81.182-154.475-146.994-246.805-146.994" style="fill:#3584e4;stroke-width:1.00193;stroke-dasharray:none" transform="matrix(.10038 0 0 -.10038 96.732 353.982)"/></g></svg>